<svg width="200" height="42" fill="none" xmlns="http://www.w3.org/2000/svg"><path d="M54.254 38c-3.323 0-5.87-.497-7.643-1.49C44.87 35.489 44 33.999 44 32.04c0-.993.38-1.808 1.139-2.442.792-.662 1.805-.993 3.039-.993.727.028 1.28.192 1.661.496.38.277.57.539.57.787 0 .027-.159.124-.475.29-.316.165-.6.413-.855.744-.253.332-.38.787-.38 1.366 0 1.297.445 2.304 1.33 3.022.918.69 2.326 1.034 4.225 1.034 1.298 0 2.437-.22 3.419-.662.98-.441 1.724-1.02 2.23-1.739.538-.744.808-1.517.808-2.317 0-.993-.333-1.848-.997-2.566a7.62 7.62 0 0 0-2.373-1.78c-.951-.496-2.248-1.062-3.894-1.697-1.898-.744-3.433-1.42-4.604-2.028a9.541 9.541 0 0 1-2.992-2.4c-.822-1.02-1.233-2.276-1.233-3.766 0-2.4.932-4.194 2.8-5.38 1.9-1.187 4.384-1.78 7.453-1.78 2.406 0 4.494.442 6.267 1.325 1.805.883 2.706 2.18 2.706 3.89 0 .993-.396 1.82-1.187 2.483-.76.635-1.756.952-2.99.952-.729-.028-1.282-.18-1.662-.455-.38-.303-.57-.58-.57-.828 0-.028.206-.124.617-.29a2.998 2.998 0 0 0 1.14-.745c.347-.331.522-.786.522-1.365 0-1.02-.459-1.822-1.377-2.401-.886-.58-2.025-.869-3.419-.869-1.93 0-3.401.4-4.413 1.2-.982.773-1.473 1.739-1.473 2.898 0 .965.3 1.78.902 2.44.6.636 1.567 1.27 2.896 1.905a65.468 65.468 0 0 0 3.513 1.49c2.025.8 3.624 1.531 4.795 2.194a9.117 9.117 0 0 1 2.99 2.607c.823 1.075 1.236 2.414 1.236 4.014 0 1.38-.507 2.635-1.52 3.767-.98 1.103-2.327 1.972-4.035 2.606-1.678.635-3.53.952-5.555.952Zm24.034-.331c-2.152 0-3.861-.567-5.128-1.698-1.266-1.13-1.898-2.621-1.898-4.47v-7.656c0-.717-.032-1.241-.095-1.573-.031-.33-.222-.62-.57-.868-.348-.249-.934-.373-1.756-.373-.38 0-.665-.04-.855-.124-.19-.11-.284-.345-.284-.704 0-.166.063-.317.19-.454.126-.166.316-.262.57-.29 1.993-.25 3.703-.608 5.126-1.077.443-.137.806-.22 1.092-.248h.142c.506 0 .76.262.76.786v12.54c0 1.27.459 2.25 1.377 2.939.89.653 2.018 1.005 3.18.993 1.488 0 2.753-.317 3.798-.952s1.741-1.27 2.089-1.904v-8.69c0-.718-.031-1.241-.094-1.574-.032-.33-.223-.62-.571-.868-.348-.249-.934-.373-1.757-.373-.38 0-.664-.04-.853-.124-.19-.11-.285-.345-.285-.704 0-.166.063-.317.19-.454.126-.166.316-.262.57-.29 1.993-.25 3.702-.608 5.127-1.077.442-.137.806-.22 1.09-.248h.144c.506 0 .76.262.76.786v14.32c0 1.63 1.25 2.443 3.75 2.443.537 0 .806.262.806.786 0 .386-.269.621-.806.703l-7.644.456c-.221 0-.348-.07-.38-.207-.03-.11-.047-.317-.047-.62v-2.32h-.094a55.824 55.824 0 0 1-2.233 1.739c-.569.386-1.313.717-2.231.993-.886.304-1.946.455-3.18.455Zm19.213-.373a.805.805 0 0 1-.319-.066.708.708 0 0 1-.252-.183.928.928 0 0 1-.19-.578c.032-.359.127-.567.285-.62.16-.084.444-.126.855-.126.823 0 1.408-.124 1.756-.372.349-.248.539-.539.57-.87.064-.331.095-.855.095-1.572V23.43c0-.716-.031-1.24-.095-1.573-.031-.33-.221-.62-.57-.868-.348-.248-.933-.373-1.756-.373-.38 0-.665-.041-.854-.124-.19-.11-.285-.345-.285-.704 0-.165.063-.317.19-.454.126-.166.316-.263.57-.29 2.056-.277 3.75-.635 5.079-1.077.538-.138.902-.22 1.092-.248h.142c.506 0 .76.263.76.787v2.565h.142c1.108-.966 2.232-1.724 3.371-2.276 1.14-.58 2.168-.869 3.085-.869 1.045 0 1.868.345 2.47 1.034.632.663.948 1.436.948 2.318 0 .773-.268 1.463-.806 2.07-.539.607-1.282.91-2.231.91a2.729 2.729 0 0 1-1.187-.248c-.317-.166-.491-.303-.523-.414.032-.055.19-.22.475-.497.285-.303.427-.648.427-1.034 0-.497-.158-.897-.474-1.2-.286-.304-.681-.455-1.187-.455-.538 0-1.218.234-2.041.703a13.107 13.107 0 0 0-2.421 1.697v10.098c0 .717.031 1.24.094 1.573.064.33.269.62.617.869.349.248.934.372 1.757.372h.285c.253 0 .443.042.57.124.126.083.205.29.237.62a.923.923 0 0 1-.19.58c-.126.166-.317.25-.57.25-1.66-.08-3.322-.121-4.984-.126-1.424 0-3.07.043-4.938.125Zm73.731.373c-2.152 0-4.067-.442-5.744-1.325-1.678-.91-2.991-2.097-3.941-3.56-.905-1.446-1.378-3.069-1.376-4.718 0-2.069.554-3.862 1.662-5.38a10.699 10.699 0 0 1 4.224-3.517c1.71-.828 3.434-1.242 5.175-1.242 2.153 0 4.067.455 5.745 1.366 1.645.853 2.991 2.084 3.892 3.559.937 1.422 1.429 3.035 1.424 4.676 0 2.07-.569 3.877-1.708 5.423a11.182 11.182 0 0 1-4.226 3.517c-1.708.8-3.418 1.2-5.127 1.2Zm0-1.532c2.153 0 3.719-.8 4.7-2.4 1.013-1.6 1.519-3.67 1.519-6.208 0-2.373-.522-4.304-1.566-5.795-1.013-1.517-2.564-2.275-4.653-2.275-2.183 0-3.766.786-4.747 2.359-.981 1.572-1.472 3.627-1.472 6.166 0 2.372.507 4.332 1.52 5.877 1.012 1.518 2.579 2.276 4.699 2.276Zm23.024 1.738c-1.552 0-2.881-.496-3.989-1.49-1.107-.993-1.661-2.413-1.661-4.262V19.955l-2.754.083a.65.65 0 0 1-.265-.053.572.572 0 0 1-.209-.154.866.866 0 0 1-.19-.538c0-.249.048-.455.142-.62a.707.707 0 0 1 .522-.332c1.108-.193 1.963-.497 2.565-.91.632-.442 1.092-.91 1.376-1.407.285-.525.633-1.311 1.045-2.36.158-.359.506-.538 1.044-.538.221 0 .443.055.664.166.221.082.333.22.333.414l-.333 4.718 5.555-.29h.095c.412 0 .617.262.617.786 0 .304-.063.594-.19.87-.095.248-.222.372-.38.372l-5.316-.124V32.62c0 .911.205 1.67.616 2.276.443.608 1.155.911 2.137.911.981 0 1.852-.152 2.61-.455.413-.138.665-.207.76-.207a.62.62 0 0 1 .522.248c.127.138.254.332.381.58a.43.43 0 0 1 .047.206c0 .11-.095.235-.286.373-.917.524-1.787.87-2.61 1.035-.791.192-1.741.289-2.848.289Zm-76.731-.828c.126.166.316.248.569.248 1.645-.078 3.291-.12 4.938-.124 2.121 0 4.098.042 5.934.124a.669.669 0 0 0 .299-.063.563.563 0 0 0 .223-.185.931.931 0 0 0 .19-.58c-.031-.33-.111-.537-.238-.62-.095-.082-.284-.124-.569-.124h-.285c-1.044 0-1.788-.069-2.231-.207-.444-.137-.744-.386-.902-.745-.158-.386-.237-1.007-.237-1.861V20.037h5.032c.11-.001.219-.024.318-.067a.708.708 0 0 0 .252-.182.812.812 0 0 0 .237-.58c-.032-.33-.127-.537-.286-.62-.126-.11-.332-.166-.616-.166h-4.937V15.94c0-1.324.063-2.483.189-3.477a6.146 6.146 0 0 1 1.092-2.815c.601-.854 1.535-1.282 2.801-1.282.145 0 .286.007.423.022a6.138 6.138 0 0 1 .104-1.385 9.251 9.251 0 0 0-.194-.003c-2.786.055-4.954.979-6.504 2.773-1.519 1.766-2.279 4.07-2.279 6.912v1.738h-2.849c-.411 0-.696.041-.854.124-.158.055-.254.276-.285.662 0 .22.063.414.19.58.159.165.364.248.617.248h3.181V32.91c0 .745-.032 1.283-.095 1.614-.031.303-.221.58-.57.828-.348.248-.934.372-1.756.372-.412 0-.697.042-.855.124-.126.055-.205.262-.237.62 0 .222.063.415.19.58Z" fill="#9C9C9C"/><path fill-rule="evenodd" clip-rule="evenodd" d="M142.644 8.456a3.968 3.968 0 0 1-.402 1.727 4.544 4.544 0 0 1-1.14 1.463 5.39 5.39 0 0 1-1.706.977 6.014 6.014 0 0 1-2.011.341c-1.393.001-2.73-.473-3.716-1.319-.986-.845-1.541-1.992-1.542-3.189 0-.593.136-1.18.401-1.727a4.546 4.546 0 0 1 1.14-1.464 5.39 5.39 0 0 1 1.706-.977 6.013 6.013 0 0 1 2.011-.342c.69 0 1.374.115 2.012.342a5.385 5.385 0 0 1 1.705.977c.489.419.876.916 1.141 1.464.264.547.4 1.134.401 1.727Zm-5.259 2.254a3.01 3.01 0 0 0 1.006-.17c.319-.114.608-.28.852-.489a2.27 2.27 0 0 0 .571-.732c.132-.273.2-.567.2-.863 0-.296-.068-.59-.2-.864a2.266 2.266 0 0 0-.57-.732 2.688 2.688 0 0 0-.853-.488 3.007 3.007 0 0 0-1.006-.171c-.696 0-1.365.237-1.858.66-.493.422-.77.996-.771 1.594.001.599.278 1.172.771 1.595.493.423 1.161.66 1.858.66Zm-2.305 4.216v21.746c0 .242.08.432.238.567.157.163.378.244.662.244.284 0 .52-.108.71-.325.189-.189.363-.474.521-.852.157-.38.299-.677.426-.893h.236c2.051 1.326 4.48 1.988 7.288 1.988 1.894 0 3.676-.433 5.349-1.299 1.672-.865 2.997-2.042 3.976-3.53A8.816 8.816 0 0 0 156 27.58c0-1.84-.441-3.476-1.325-4.911a8.88 8.88 0 0 0-3.549-3.409c-1.515-.812-3.204-1.217-5.065-1.217-1.136 0-2.288.202-3.455.608a9.1 9.1 0 0 0-3.076 1.746h-.142V15a9.225 9.225 0 0 1-4.308-.074Zm14.294 18.863c-1.167 1.489-2.714 2.233-4.638 2.233-1.01 0-1.909-.19-2.698-.568-.757-.38-1.373-.826-1.846-1.34-.442-.54-.709-1.028-.804-1.46V21.939c1.356-1.245 3.028-1.867 5.017-1.867 2.24 0 3.928.757 5.064 2.273 1.136 1.488 1.703 3.287 1.703 5.397 0 2.517-.598 4.533-1.798 6.047ZM12.672.315A2.204 2.204 0 0 1 13.82 0c.41 0 .812.11 1.146.315 8.542 5.232 12.414 11.503 12.658 20.502.113 4.297-.37 8.231-1.837 11.63-1.507 3.401-4.184 6.542-8.125 9.196a2.141 2.141 0 0 1-.838.326 2.29 2.29 0 0 1-.919-.035c-1.207-.297-1.413-1.524-2.085-2.289-.673.765-.876 1.991-2.086 2.289a2.29 2.29 0 0 1-.918.034 2.141 2.141 0 0 1-.837-.326c-3.941-2.653-6.62-5.794-8.125-9.195-1.467-3.399-1.95-7.333-1.837-11.63C.259 11.82 4.13 5.546 12.672.315Zm4.417 37.452c2.466-1.946 3.953-4.067 5.003-6.507 1.322-2.983 1.703-6.28 1.589-10.364-.19-7.017-2.106-11.583-7.906-15.822v12.4c2.268.501 3.286 2.41 3.286 4.51 0 2.1-1.018 4.009-3.286 4.51v10.145s1.053.834 1.314 1.128Zm-6.574 0c-2.467-1.946-3.919-4.067-4.97-6.507-1.32-2.983-1.702-6.28-1.586-10.364.19-7.002 2.095-11.588 7.871-15.822v12.4c-2.268.501-3.287 2.41-3.287 4.51 0 2.1 1.018 4.009 3.287 4.51v10.145s-1.063.844-1.315 1.128Zm3.287-18.038c-.697 0-1.365.237-1.858.66-.493.422-.77.996-.771 1.594 0 1.246 1.177 2.255 2.629 2.255.697 0 1.365-.237 1.858-.66.493-.422.77-.996.771-1.594 0-1.245-1.177-2.255-2.63-2.255Z" fill="#9C9C9C"/></svg>