<svg width="32" height="32" viewBox="0 0 32 32" fill="none" xmlns="http://www.w3.org/2000/svg">
<g clip-path="url(#clip0_103_175)">
<circle cx="16" cy="16" r="16" fill="white"/>
<path d="M23.5833 13.66H22.695L20.8533 8.59003C20.7009 8.17198 20.4239 7.81074 20.0597 7.55504C19.6955 7.29933 19.2617 7.16147 18.8167 7.16003H17.0833C16.4875 7.16003 16 7.64753 16 8.24337C16 8.8392 16.4875 9.3267 17.0833 9.3267H18.8167L20.3983 13.66H15.1875L14.7975 12.5767H14.895C15.4908 12.5767 15.9783 12.0892 15.9783 11.4934C15.9783 10.8975 15.4908 10.41 14.895 10.41H11.6667C11.0708 10.41 10.5833 10.8975 10.5833 11.4934C10.5833 12.0892 11.0708 12.5767 11.6667 12.5767H12.4792L14.4508 17.9934H13.725C13.2483 15.5775 11.2225 13.79 8.6875 13.6709C5.65417 13.5192 3 16.0434 3 19.0767C3 22.11 5.38333 24.4934 8.41667 24.4934C11.0817 24.4934 13.2375 22.6625 13.725 20.16H18.275C18.7517 22.5759 20.7775 24.3634 23.3125 24.4825C26.3458 24.6234 29 22.11 29 19.0659C29 16.0434 26.6167 13.66 23.5833 13.66ZM9.5 20.16H11.4717C11.0167 21.4925 9.73833 22.4134 8.2 22.3159C6.58583 22.2184 5.2425 20.8534 5.16667 19.2284C5.09083 17.3325 6.5425 15.8267 8.41667 15.8267C9.8575 15.8267 11.0383 16.7259 11.4717 17.9934H9.5C8.90417 17.9934 8.41667 18.4809 8.41667 19.0767C8.41667 19.6725 8.90417 20.16 9.5 20.16ZM18.275 17.9934H16.7583L15.9675 15.8267H19.25C18.7733 16.455 18.4267 17.1809 18.275 17.9934ZM23.4533 22.3267C21.785 22.2617 20.3767 20.8425 20.3333 19.1634C20.3117 18.1234 20.7558 17.2134 21.4708 16.6067L22.1425 18.4484C22.3483 19.0117 22.9658 19.3042 23.5292 19.0984C24.0925 18.8925 24.385 18.275 24.1792 17.7117L23.4967 15.8375L23.5075 15.8267C23.9418 15.8119 24.3747 15.8853 24.7799 16.0424C25.1851 16.1995 25.5543 16.4371 25.8651 16.7408C26.1759 17.0446 26.422 17.4081 26.5884 17.8096C26.7548 18.2111 26.8381 18.6421 26.8333 19.0767C26.8333 20.94 25.3383 22.3917 23.4533 22.3267Z" fill="url(#paint0_linear_103_175)"/>
</g>
<defs>
<linearGradient id="paint0_linear_103_175" x1="16" y1="7.16003" x2="16" y2="24.4934" gradientUnits="userSpaceOnUse">
<stop stop-color="#FFB60D"/>
<stop offset="1" stop-color="#E59317"/>
</linearGradient>
<clipPath id="clip0_103_175">
<rect width="32" height="32" fill="white"/>
</clipPath>
</defs>
</svg>
