<svg width="209" height="49" viewBox="0 0 209 49" fill="none" xmlns="http://www.w3.org/2000/svg">
<path d="M7.74529 20.2064C8.74112 18.7364 10.1058 17.542 11.8392 16.6233C13.6096 15.7045 15.6197 15.2451 17.8695 15.2451C20.4881 15.2451 22.8486 15.8882 24.9509 17.1745C27.0901 18.4607 28.7682 20.2983 29.9854 22.687C31.2394 25.039 31.8664 27.7769 31.8664 30.9006C31.8664 34.0244 31.2394 36.799 29.9854 39.2245C28.7682 41.6132 27.0901 43.4691 24.9509 44.7921C22.8486 46.1151 20.4881 46.7766 17.8695 46.7766C15.5828 46.7766 13.5727 46.3356 11.8392 45.4536C10.1426 44.5349 8.778 43.3589 7.74529 41.9256V46.2805H0V5.488H7.74529V20.2064ZM23.9551 30.9006C23.9551 29.0631 23.5678 27.4829 22.7933 26.1599C22.0556 24.8001 21.0598 23.7711 19.8058 23.0729C18.5955 22.3763 17.2202 22.0148 15.8225 22.0255C14.421 22.0255 13.0932 22.393 11.8392 23.128C10.6221 23.8263 9.6263 24.8553 8.85177 26.215C8.11412 27.5748 7.74529 29.1734 7.74529 31.0109C7.74529 32.8484 8.11412 34.447 8.85177 35.8068C9.6263 37.1665 10.6221 38.2139 11.8392 38.9489C13.0932 39.6471 14.421 39.9963 15.8225 39.9963C17.2609 39.9963 18.5887 39.6287 19.8058 38.8937C21.0598 38.1587 22.0556 37.1114 22.7933 35.7516C23.5678 34.3919 23.9551 32.7749 23.9551 30.9006ZM41.422 12.103C40.0573 12.103 38.914 11.6804 37.9919 10.8351C37.1067 9.95313 36.6641 8.869 36.6641 7.58275C36.6641 6.2965 37.1067 5.23075 37.9919 4.3855C38.914 3.5035 40.0573 3.0625 41.422 3.0625C42.7866 3.0625 43.9115 3.5035 44.7967 4.3855C45.7188 5.23075 46.1798 6.2965 46.1798 7.58275C46.1798 8.869 45.7188 9.95313 44.7967 10.8351C43.9115 11.6804 42.7866 12.103 41.422 12.103ZM45.2393 15.7413V46.2805H37.494V15.7413H45.2393ZM71.0385 46.2805L60.6377 33.271V46.2805H52.8924V5.488H60.6377V28.6956L70.9278 15.7413H80.9967L67.4978 31.066L81.1074 46.2805H71.0385ZM81.6714 31.0109C81.6714 27.8504 82.3168 25.0941 83.6077 22.7421C84.8986 20.3534 86.6874 18.5159 88.9741 17.2296C91.2608 15.9066 93.8794 15.2451 96.83 15.2451C100.629 15.2451 103.764 16.2006 106.235 18.1116C108.743 19.9859 110.421 22.6319 111.269 26.0496H102.917C102.475 24.7266 101.718 23.6976 100.649 22.9626C99.6162 22.1909 98.3253 21.805 96.7762 21.805C94.5633 21.805 92.8114 22.6135 91.5205 24.2305C90.2296 25.8108 89.5842 28.0709 89.5842 31.0109C89.5842 33.9141 90.2296 36.1743 91.5205 37.7913C92.8114 39.3715 94.5633 40.1616 96.7762 40.1616C99.9112 40.1616 101.958 38.7651 102.917 35.9721H111.271C110.423 39.2796 108.745 41.9072 106.237 43.855C103.729 45.8027 100.594 46.7766 96.8315 46.7766C93.881 46.7766 91.2623 46.1335 88.9756 44.8473C86.707 43.5429 84.8486 41.6339 83.6092 39.3348C82.3183 36.946 81.6714 34.1714 81.6714 31.0109ZM123.153 20.482C124.103 18.9102 125.435 17.602 127.026 16.6784C128.649 15.7596 130.493 15.3002 132.558 15.3002V23.4036H130.511C128.077 23.4036 126.233 23.9732 124.979 25.1125C123.762 26.2517 123.153 28.2362 123.153 31.066V46.2805H115.408V15.7413H123.153V20.482ZM156.307 41.9256C155.459 43.3221 154.076 44.4981 152.158 45.4536C150.24 46.3724 148.175 46.8317 145.962 46.8317C144.044 46.8317 142.311 46.4459 140.762 45.6741C139.212 44.9024 137.995 43.8366 137.11 42.4769C136.225 41.1171 135.782 39.5553 135.782 37.7913C135.782 34.9615 136.834 32.6462 138.936 30.8455C141.075 29.0447 144.265 28.1444 148.507 28.1444H156.307C156.234 26.1966 155.662 24.6531 154.592 23.5139C153.56 22.3379 152.121 21.7499 150.277 21.7499C148.654 21.7499 147.308 22.1909 146.239 23.0729C145.169 23.9181 144.487 25.1125 144.192 26.656H136.446C136.815 24.451 137.608 22.4849 138.825 20.7576C140.068 19.0028 141.745 17.5976 143.694 16.6784C145.722 15.6861 147.99 15.19 150.498 15.19C153.08 15.19 155.404 15.7229 157.469 16.7886C159.521 17.8068 161.231 19.3962 162.393 21.364C163.573 23.3485 164.163 25.6821 164.163 28.3649V46.2805H156.307V41.9256ZM148.23 40.6026C149.521 40.6026 150.775 40.327 151.992 39.7757C153.246 39.2245 154.279 38.3976 155.09 37.2951C155.902 36.1926 156.307 34.888 156.307 33.3812V33.1607H148.949C147.179 33.1607 145.851 33.5099 144.966 34.2081C144.118 34.9064 143.694 35.8251 143.694 36.9644C143.694 38.0669 144.081 38.9489 144.855 39.6104C145.667 40.2719 146.792 40.6026 148.23 40.6026ZM180.498 22.0806V46.2805H172.642V22.0806H169.156V15.7413H172.642V14.1978C172.642 10.4493 173.711 7.693 175.85 5.929C177.99 4.165 181.217 3.33813 185.532 3.44838V9.95312C183.651 9.91638 182.342 10.2287 181.604 10.8903C180.866 11.5518 180.498 12.7461 180.498 14.4734V15.7413H190.563V8.18913H198.364V15.7413H205.224V22.0806H198.364V36.8541C198.364 37.8831 198.604 38.6365 199.083 39.1143C199.6 39.5553 200.448 39.7757 201.628 39.7757H205.224V46.2805H200.356C193.828 46.2805 190.563 43.12 190.563 36.799V22.0806H180.498Z" fill="white"/>
</svg>
