<svg width="29" height="33" fill="none" xmlns="http://www.w3.org/2000/svg"><g clip-path="url(#a)"><path d="M14.692 9.685a5.341 5.341 0 0 0-5.342 5.343 5.341 5.341 0 0 0 5.342 5.343 5.341 5.341 0 0 0 5.343-5.343 5.341 5.341 0 0 0-5.343-5.343Zm11.941 4.008A12.013 12.013 0 0 0 16.028 3.087V1.671A1.34 1.34 0 0 0 14.692.336a1.34 1.34 0 0 0-1.335 1.335v1.416A12.013 12.013 0 0 0 2.75 13.693H1.336A1.34 1.34 0 0 0 0 15.027a1.34 1.34 0 0 0 1.336 1.336H2.75a12.013 12.013 0 0 0 10.606 10.605v1.416a1.34 1.34 0 0 0 1.335 1.335 1.34 1.34 0 0 0 1.336-1.335v-1.416a12.013 12.013 0 0 0 10.605-10.605h1.416a1.34 1.34 0 0 0 1.336-1.336 1.34 1.34 0 0 0-1.336-1.335h-1.416Zm-11.94 10.685a9.343 9.343 0 0 1-9.35-9.35c0-5.169 4.18-9.35 9.35-9.35 5.168 0 9.349 4.181 9.349 9.35 0 5.17-4.18 9.35-9.35 9.35Z" fill="url(#b)"/></g><defs><linearGradient id="b" x1="14.692" y1=".336" x2="14.692" y2="29.721" gradientUnits="userSpaceOnUse"><stop stop-color="#FFBF00"/><stop offset="1" stop-color="#F2A60C"/></linearGradient><clipPath id="a"><path fill="#fff" d="M0 0h28.85v32.056H0z"/></clipPath></defs></svg>