<svg width="29" height="33" fill="none" xmlns="http://www.w3.org/2000/svg"><g clip-path="url(#a)"><path d="M22.84 9.35h-.986l-2.043-6.251a2.667 2.667 0 0 0-.881-1.276 2.252 2.252 0 0 0-1.38-.487h-1.923c-.66 0-1.202.6-1.202 1.335s.541 1.336 1.202 1.336h1.924l1.755 5.343h-5.782l-.433-1.336h.108c.661 0 1.202-.601 1.202-1.336 0-.734-.54-1.335-1.202-1.335H9.617c-.661 0-1.202.6-1.202 1.335s.54 1.336 1.202 1.336h.901l2.188 6.678h-.805c-.53-2.978-2.777-5.182-5.59-5.329C2.945 9.176 0 12.288 0 16.028s2.645 6.678 6.01 6.678c2.958 0 5.35-2.257 5.89-5.342h5.05c.529 2.978 2.776 5.182 5.59 5.329 3.365.174 6.31-2.925 6.31-6.678 0-3.727-2.644-6.665-6.01-6.665ZM7.213 17.364H9.4c-.504 1.643-1.923 2.778-3.63 2.658-1.791-.12-3.282-1.803-3.366-3.807-.084-2.337 1.527-4.194 3.606-4.194 1.6 0 2.91 1.109 3.39 2.671H7.213c-.662 0-1.203.601-1.203 1.336 0 .735.541 1.336 1.203 1.336Zm9.737-2.672h-1.683l-.878-2.67h3.643a6.677 6.677 0 0 0-1.082 2.67Zm5.746 5.343c-1.852-.08-3.414-1.83-3.462-3.9-.025-1.282.468-2.404 1.262-3.152l.745 2.27c.229.695.914 1.056 1.539.802.625-.254.95-1.015.721-1.71l-.757-2.31.012-.014a3.25 3.25 0 0 1 1.412.266c.45.194.859.487 1.204.861.345.375.618.823.802 1.318.185.495.277 1.026.272 1.562 0 2.297-1.659 4.087-3.75 4.007Zm-9.473 6.678H8.415l7.212 4.007v-2.67h4.809l-7.213-4.008v2.671Z" fill="url(#b)"/></g><defs><linearGradient id="b" x1="14.425" y1="1.336" x2="14.425" y2="30.72" gradientUnits="userSpaceOnUse"><stop stop-color="#FFBF00"/><stop offset="1" stop-color="#F2A60C"/></linearGradient><clipPath id="a"><path fill="#fff" d="M0 0h28.85v32.056H0z"/></clipPath></defs></svg>