<svg width="29" height="33" fill="none" xmlns="http://www.w3.org/2000/svg"><path d="M23.762 10.685h-1.336V8.014a6.68 6.68 0 0 0-6.678-6.678A6.68 6.68 0 0 0 9.07 8.014v2.671H7.733a2.68 2.68 0 0 0-2.671 2.672v13.356a2.68 2.68 0 0 0 2.67 2.672h16.029a2.68 2.68 0 0 0 2.671-2.672V13.357a2.68 2.68 0 0 0-2.671-2.672Zm-8.014 12.021a2.68 2.68 0 0 1-2.671-2.671 2.68 2.68 0 0 1 2.67-2.671 2.68 2.68 0 0 1 2.672 2.671 2.68 2.68 0 0 1-2.671 2.671Zm-4.007-12.02V8.013a4.002 4.002 0 0 1 4.007-4.007 4.002 4.002 0 0 1 4.007 4.007v2.671H11.74Z" fill="url(#a)"/><defs><linearGradient id="a" x1="15.748" y1="1.336" x2="15.748" y2="29.385" gradientUnits="userSpaceOnUse"><stop stop-color="#FFBF00"/><stop offset="1" stop-color="#F2A60C"/></linearGradient></defs></svg>