<svg width="27" height="24" fill="none" xmlns="http://www.w3.org/2000/svg"><path d="M20.595 18.693c-1.804 0-2.939.561-3.94 1.069-.869.44-1.577.8-2.739.8-1.202 0-1.87-.333-2.738-.8-1.002-.508-2.097-1.069-3.94-1.069s-2.939.561-3.94 1.069c-.575.293-1.082.547-1.697.694-.6.134-1.041.614-1.041 1.216v.133c0 .802.748 1.376 1.522 1.215.989-.2 1.737-.574 2.418-.921.868-.44 1.563-.802 2.738-.802s1.87.334 2.738.802c1.002.508 2.097 1.069 3.94 1.069s2.939-.561 3.94-1.07c.869-.44 1.576-.8 2.739-.8 1.202 0 1.87.333 2.738.8.694.348 1.442.736 2.444.936a1.255 1.255 0 0 0 1.496-1.216v-.12c0-.614-.454-1.095-1.055-1.229-.615-.133-1.109-.387-1.683-.694-1.002-.521-2.137-1.082-3.94-1.082Zm0-5.944c-1.804 0-2.939.575-3.94 1.069-.869.427-1.577.801-2.739.801-1.202 0-1.87-.334-2.738-.801-1.002-.508-2.097-1.069-3.94-1.069s-2.939.575-3.94 1.069c-.575.28-1.082.547-1.71.694C1 14.646.56 15.127.56 15.728v.133a1.242 1.242 0 0 0 1.496 1.216c1.001-.2 1.75-.588 2.444-.922.868-.467 1.536-.801 2.738-.801s1.87.334 2.738.801c1.002.508 2.097 1.069 3.94 1.069s2.939-.575 3.94-1.069c.869-.467 1.536-.801 2.739-.801 1.202 0 1.87.334 2.738.801.694.348 1.442.735 2.444.935a1.256 1.256 0 0 0 1.496-1.229v-.12c0-.614-.454-1.095-1.055-1.229-.615-.133-1.109-.387-1.683-.694-1.002-.508-2.137-1.069-3.94-1.069Zm3.94-10.792C23.533 1.45 22.425.89 20.595.89s-2.939.56-3.94 1.068c-.869.427-1.577.801-2.739.801-1.202 0-1.87-.333-2.738-.8-1.002-.495-2.097-1.07-3.94-1.07s-2.939.562-3.94 1.07c-.575.293-1.082.547-1.697.694-.6.133-1.041.614-1.041 1.215v.094c0 .801.72 1.389 1.496 1.228 1.001-.2 1.75-.587 2.444-.921.868-.441 1.563-.802 2.738-.802s1.87.334 2.738.802c1.002.507 2.097 1.068 3.94 1.068s2.939-.574 3.94-1.068c.869-.428 1.576-.802 2.739-.802 1.202 0 1.87.334 2.738.802.694.347 1.442.734 2.444.935a1.256 1.256 0 0 0 1.496-1.23v-.12c0-.614-.454-1.095-1.055-1.228-.615-.134-1.109-.374-1.683-.668Zm-3.94 4.849c-1.804 0-2.939.574-3.94 1.068-.869.468-1.537.801-2.739.801s-1.87-.333-2.738-.8c-1.002-.508-2.097-1.07-3.94-1.07s-2.939.575-3.94 1.07c-.575.306-1.069.56-1.683.694C1.014 8.702.56 9.183.56 9.797v.12a1.242 1.242 0 0 0 1.496 1.216c1.001-.2 1.75-.588 2.444-.921.868-.428 1.576-.802 2.738-.802s1.87.334 2.738.801c1.002.508 2.097 1.069 3.94 1.069s2.939-.574 3.94-1.069c.869-.427 1.576-.8 2.739-.8 1.202 0 1.87.333 2.738.8.694.348 1.442.735 2.444.935a1.257 1.257 0 0 0 1.496-1.215v-.12c0-.615-.454-1.095-1.055-1.229-.615-.134-1.109-.387-1.683-.695-1.002-.52-2.137-1.081-3.94-1.081Z" fill="url(#a)"/><defs><linearGradient id="a" x1="13.916" y1=".889" x2="13.916" y2="23.168" gradientUnits="userSpaceOnUse"><stop stop-color="#FFBF00"/><stop offset="1" stop-color="#F2A60C"/></linearGradient></defs></svg>