<svg width="29" height="33" fill="none" xmlns="http://www.w3.org/2000/svg"><path d="M25.824 13.357a1.335 1.335 0 0 0-.094 1.335c.332.774.565 1.586.695 2.418.344 2.15.022 4.355-.922 6.318a1.336 1.336 0 0 1-1.188.708H7.418a1.335 1.335 0 0 1-1.188-.722 10.685 10.685 0 0 1 10.965-15.32c.97.114 1.92.366 2.819.748a1.335 1.335 0 0 0 1.335-.093 1.335 1.335 0 0 0-.227-2.351 13.357 13.357 0 0 0-16.816 18.98 2.671 2.671 0 0 0 2.298 1.335h18.499a2.67 2.67 0 0 0 2.324-1.335 13.356 13.356 0 0 0 .734-11.874 1.335 1.335 0 0 0-2.337-.147Z" fill="url(#a)"/><path d="M13.976 16.816a2.673 2.673 0 0 0 3.78 3.78l7.56-11.34-11.34 7.56Z" fill="url(#b)"/><defs><linearGradient id="a" x1="15.858" y1="5.317" x2="15.858" y2="26.713" gradientUnits="userSpaceOnUse"><stop stop-color="#FFBF00"/><stop offset="1" stop-color="#F2A60C"/></linearGradient><linearGradient id="b" x1="19.255" y1="9.256" x2="19.255" y2="21.379" gradientUnits="userSpaceOnUse"><stop stop-color="#FFBF00"/><stop offset="1" stop-color="#F2A60C"/></linearGradient></defs></svg>