<svg width="62" height="62" fill="none" xmlns="http://www.w3.org/2000/svg"><path d="M31 0c-8.422 0-9.473.039-12.78.186-3.301.155-5.549.674-7.525 1.442-2.038.79-3.77 1.852-5.492 3.575-1.723 1.723-2.788 3.451-3.576 5.492C.86 12.671.339 14.919.186 18.22.031 21.527 0 22.578 0 31s.039 9.473.186 12.78c.155 3.299.674 5.549 1.442 7.525.79 2.036 1.852 3.769 3.575 5.492 1.723 1.72 3.451 2.788 5.492 3.576 1.979.764 4.226 1.288 7.525 1.441 3.307.155 4.358.186 12.78.186s9.473-.039 12.78-.186c3.299-.155 5.549-.677 7.525-1.441 2.036-.791 3.769-1.855 5.492-3.576 1.72-1.723 2.788-3.448 3.576-5.492.764-1.976 1.288-4.226 1.441-7.525.155-3.307.186-4.358.186-12.78s-.039-9.473-.186-12.78c-.155-3.299-.677-5.551-1.441-7.525-.791-2.038-1.855-3.77-3.576-5.492-1.723-1.723-3.448-2.788-5.492-3.576C49.329.86 47.079.339 43.78.186 40.473.031 39.422 0 31 0Zm0 5.58c8.275 0 9.261.041 12.53.183 3.022.143 4.662.644 5.752 1.072 1.452.561 2.48 1.233 3.57 2.315 1.083 1.085 1.755 2.116 2.315 3.568.424 1.09.93 2.73 1.067 5.753.147 3.27.18 4.252.18 12.529 0 8.277-.038 9.261-.19 12.53-.158 3.022-.662 4.662-1.088 5.752-.579 1.452-1.237 2.48-2.322 3.57-1.083 1.083-2.129 1.755-3.565 2.315-1.085.424-2.752.93-5.774 1.067-3.291.147-4.26.18-12.553.18-8.294 0-9.263-.038-12.552-.19-3.025-.158-4.691-.662-5.776-1.088-1.47-.579-2.48-1.237-3.563-2.322-1.087-1.083-1.782-2.129-2.325-3.565-.426-1.085-.927-2.752-1.085-5.774-.116-3.255-.157-4.26-.157-12.514 0-8.256.041-9.263.157-12.557.158-3.023.66-4.687 1.085-5.771.543-1.473 1.238-2.48 2.325-3.568 1.083-1.082 2.093-1.78 3.563-2.32 1.085-.429 2.715-.933 5.737-1.088 3.294-.116 4.263-.154 12.553-.154L31 5.58Zm0 9.502c-8.796 0-15.918 7.13-15.918 15.918 0 8.796 7.13 15.919 15.918 15.919 8.796 0 15.919-7.13 15.919-15.919 0-8.796-7.13-15.918-15.919-15.918Zm0 26.251A10.33 10.33 0 0 1 20.667 31 10.33 10.33 0 0 1 31 20.667 10.33 10.33 0 0 1 41.333 31 10.33 10.33 0 0 1 31 41.333Zm20.269-26.88a3.723 3.723 0 0 1-3.72 3.72 3.723 3.723 0 0 1-3.72-3.72 3.722 3.722 0 0 1 3.72-3.717 3.722 3.722 0 0 1 3.72 3.718Z" fill="#fff"/></svg>